<svg width="14" height="16" viewBox="0 0 14 16" fill="none" xmlns="http://www.w3.org/2000/svg">
<path d="M12.4444 16H1.55556C0.696446 16 0 15.2837 0 14.4V3.2C0 2.31634 0.696446 1.6 1.55556 1.6H3.11111V0H4.66667V1.6H9.33333V0H10.8889V1.6H12.4444C13.3036 1.6 14 2.31634 14 3.2V14.4C14 15.2837 13.3036 16 12.4444 16ZM1.55556 6.4V14.4H12.4444V6.4H1.55556ZM1.55556 3.2V4.8H12.4444V3.2H1.55556ZM10.8889 12.8H9.33333V11.2H10.8889V12.8ZM7.77778 12.8H6.22222V11.2H7.77778V12.8ZM4.66667 12.8H3.11111V11.2H4.66667V12.8ZM10.8889 9.6H9.33333V8H10.8889V9.6ZM7.77778 9.6H6.22222V8H7.77778V9.6ZM4.66667 9.6H3.11111V8H4.66667V9.6Z" fill="#455787"/>
</svg>
