<svg width="227" height="42" viewBox="0 0 227 42" fill="none" xmlns="http://www.w3.org/2000/svg">
<path d="M0.808 41V1.8H9.32L21.808 26.664L34.128 1.8H42.64V41H35.472V13.952L24.552 35.4H18.896L7.976 13.952V41H0.808ZM62.4055 41.672C59.7175 41.672 57.2908 41.056 55.1255 39.824C52.9975 38.592 51.2988 36.8933 50.0295 34.728C48.7975 32.5253 48.1815 29.9867 48.1815 27.112C48.1815 24.2373 48.8162 21.7173 50.0855 19.552C51.3548 17.3493 53.0535 15.632 55.1815 14.4C57.3468 13.168 59.7735 12.552 62.4615 12.552C65.1122 12.552 67.5015 13.168 69.6295 14.4C71.7948 15.632 73.4935 17.3493 74.7255 19.552C75.9948 21.7173 76.6295 24.2373 76.6295 27.112C76.6295 29.9867 75.9948 32.5253 74.7255 34.728C73.4935 36.8933 71.7948 38.592 69.6295 39.824C67.4642 41.056 65.0562 41.672 62.4055 41.672ZM62.4055 35.456C64.2722 35.456 65.8962 34.7653 67.2775 33.384C68.6588 31.9653 69.3495 29.8747 69.3495 27.112C69.3495 24.3493 68.6588 22.2773 67.2775 20.896C65.8962 19.4773 64.2908 18.768 62.4615 18.768C60.5575 18.768 58.9148 19.4773 57.5335 20.896C56.1895 22.2773 55.5175 24.3493 55.5175 27.112C55.5175 29.8747 56.1895 31.9653 57.5335 33.384C58.9148 34.7653 60.5388 35.456 62.4055 35.456ZM88.1753 41L77.9833 13.224H85.4873L92.5433 34.224L99.5993 13.224H107.103L96.8553 41H88.1753ZM114.488 8.912C113.182 8.912 112.099 8.52 111.24 7.736C110.419 6.952 110.008 5.96267 110.008 4.768C110.008 3.57333 110.419 2.60266 111.24 1.856C112.099 1.072 113.182 0.679998 114.488 0.679998C115.795 0.679998 116.859 1.072 117.68 1.856C118.539 2.60266 118.968 3.57333 118.968 4.768C118.968 5.96267 118.539 6.952 117.68 7.736C116.859 8.52 115.795 8.912 114.488 8.912ZM110.904 41V13.224H118.072V41H110.904ZM138.05 41.672C135.25 41.672 132.767 41.0747 130.602 39.88C128.437 38.6853 126.738 37.0053 125.506 34.84C124.274 32.6747 123.658 30.1733 123.658 27.336C123.658 24.4613 124.255 21.904 125.45 19.664C126.682 17.424 128.362 15.688 130.49 14.456C132.655 13.1867 135.194 12.552 138.106 12.552C140.831 12.552 143.239 13.1493 145.33 14.344C147.421 15.5387 149.045 17.1813 150.202 19.272C151.397 21.3253 151.994 23.6213 151.994 26.16C151.994 26.5707 151.975 27 151.938 27.448C151.938 27.896 151.919 28.3627 151.882 28.848H130.77C130.919 31.0133 131.666 32.712 133.01 33.944C134.391 35.176 136.053 35.792 137.994 35.792C139.45 35.792 140.663 35.4747 141.634 34.84C142.642 34.168 143.389 33.3093 143.874 32.264H151.154C150.631 34.0187 149.754 35.624 148.522 37.08C147.327 38.4987 145.834 39.6187 144.042 40.44C142.287 41.2613 140.29 41.672 138.05 41.672ZM138.106 18.376C136.351 18.376 134.802 18.88 133.458 19.888C132.114 20.8587 131.255 22.352 130.882 24.368H144.714C144.602 22.5387 143.93 21.0827 142.698 20C141.466 18.9173 139.935 18.376 138.106 18.376Z" fill="white"/>
<path d="M174.327 41.672C170.631 41.672 167.401 40.832 164.639 39.152C161.876 37.472 159.729 35.1387 158.199 32.152C156.668 29.128 155.903 25.6187 155.903 21.624C155.903 17.592 156.687 14.0453 158.255 10.984C159.86 7.88533 162.119 5.47733 165.031 3.76C167.98 2.00533 171.471 1.128 175.503 1.128C180.095 1.128 183.903 2.22933 186.927 4.432C189.951 6.63466 191.911 9.67733 192.807 13.56H184.799C184.201 11.7307 183.119 10.312 181.551 9.304C179.983 8.25866 177.967 7.736 175.503 7.736C171.583 7.736 168.559 8.98666 166.431 11.488C164.303 13.952 163.239 17.3493 163.239 21.68C163.239 26.0107 164.284 29.3707 166.375 31.76C168.503 34.112 171.377 35.288 174.999 35.288C178.545 35.288 181.215 34.336 183.007 32.432C184.836 30.4907 185.937 27.952 186.311 24.816H176.399V19.44H193.535V41H186.927L186.367 35.848C185.097 37.7147 183.511 39.152 181.607 40.16C179.703 41.168 177.276 41.672 174.327 41.672ZM212.663 41.672C209.975 41.672 207.549 41.056 205.383 39.824C203.255 38.592 201.557 36.8933 200.287 34.728C199.055 32.5253 198.439 29.9867 198.439 27.112C198.439 24.2373 199.074 21.7173 200.343 19.552C201.613 17.3493 203.311 15.632 205.439 14.4C207.605 13.168 210.031 12.552 212.719 12.552C215.37 12.552 217.759 13.168 219.887 14.4C222.053 15.632 223.751 17.3493 224.983 19.552C226.253 21.7173 226.887 24.2373 226.887 27.112C226.887 29.9867 226.253 32.5253 224.983 34.728C223.751 36.8933 222.053 38.592 219.887 39.824C217.722 41.056 215.314 41.672 212.663 41.672ZM212.663 35.456C214.53 35.456 216.154 34.7653 217.535 33.384C218.917 31.9653 219.607 29.8747 219.607 27.112C219.607 24.3493 218.917 22.2773 217.535 20.896C216.154 19.4773 214.549 18.768 212.719 18.768C210.815 18.768 209.173 19.4773 207.791 20.896C206.447 22.2773 205.775 24.3493 205.775 27.112C205.775 29.8747 206.447 31.9653 207.791 33.384C209.173 34.7653 210.797 35.456 212.663 35.456Z" fill="#FF9800"/>
</svg>
