<svg width="12" height="14" viewBox="0 0 12 14" fill="none" xmlns="http://www.w3.org/2000/svg">
<path d="M2.25 3.68421C2.25 1.64948 3.92893 0 6 0C8.07107 0 9.75 1.64948 9.75 3.68421C9.75 5.71894 8.07107 7.36842 6 7.36842C3.92893 7.36842 2.25 5.71894 2.25 3.68421ZM6 5.89474C7.24264 5.89474 8.25 4.90505 8.25 3.68421C8.25 2.46337 7.24264 1.47368 6 1.47368C4.75736 1.47368 3.75 2.46337 3.75 3.68421C3.75 4.90505 4.75736 5.89474 6 5.89474Z" fill="#455787"/>
<path d="M1.75736 9.83179C0.632141 10.9373 0 12.4366 0 14H1.5C1.5 12.8275 1.97411 11.703 2.81802 10.8738C3.66193 10.0447 4.80653 9.57895 6 9.57895C7.19347 9.57895 8.33807 10.0447 9.18198 10.8738C10.0259 11.703 10.5 12.8275 10.5 14H12C12 12.4366 11.3679 10.9373 10.2426 9.83179C9.11742 8.72631 7.5913 8.10526 6 8.10526C4.4087 8.10526 2.88258 8.72631 1.75736 9.83179Z" fill="#455787"/>
</svg>
